PathFileType	4	(X/Y/Z)	G:\Shared drives\HPL_Drive\Pi-Spi Study\20230118_AMCsubject1\Trimmed_left_flex_18001_rotated.trc
DataRate	CameraRate	NumFrames	NumMarkers	Units	OrigDataRate	OrigDataStartFrame	OrigNumFrames
200.00	200.00	       4	35	mm	200.00	151	       200
Frame#	Time	C7			Sternum			r_AMC1			r_AMC2			r_AMC3			l_AMC1			l_AMC2			l_AMC3			PX			T8			r_humerous			r_elbow_medial			r_elbow_lateral			r_forearm			r_wrist_radius			r_wrist_ulna			r_MCP_1			r_MCP_3			l_humerous			l_elbow_medial			l_elbow_lateral			l_forearm			l_wrist_radius			l_wrist_ulna			l_MCP_1			l_MCP_3			r_ASIS			r_PSIS			l_ASIS			l_PSIS			r_IC			l_IC			TS			AI			AA			
		X1	Y1	Z1	X2	Y2	Z2	X3	Y3	Z3	X4	Y4	Z4	X5	Y5	Z5	X6	Y6	Z6	X7	Y7	Z7	X8	Y8	Z8	X9	Y9	Z9	X10	Y10	Z10	X11	Y11	Z11	X12	Y12	Z12	X13	Y13	Z13	X14	Y14	Z14	X15	Y15	Z15	X16	Y16	Z16	X17	Y17	Z17	X18	Y18	Z18	X19	Y19	Z19	X20	Y20	Z20	X21	Y21	Z21	X22	Y22	Z22	X23	Y23	Z23	X24	Y24	Z24	X25	Y25	Z25	X26	Y26	Z26	X27	Y27	Z27	X28	Y28	Z28	X29	Y29	Z29	X30	Y30	Z30	X31	Y31	Z31	X32	Y32	Z32	X33	Y33	Z33	X34	Y34	Z34	X35	Y35	Z35	

151	0.75	195.593	1368.1095	-235.762	332.3164	1325.2595	-205.5068	178.4789	1318.5524	-78.6191	208.5838	1322.6036	-38.1317	229.2013	1358.6958	-56.7161	202.2428	1340.6334	-359.5582	237.1996	1375.5012	-373.8479	225.1255	1396.6879	-326.9235	406.5175	1135.0784	-198.6337	175.2927	1189.4778	-239.3192	293.2828	1143.4672	-11.5848	233.4447	998.3157	-41.4244	244.9026	1010.1561	23.4969	303.3871	857.6873	51.2764	355.5321	796.0939	34.9662	307.7528	787.4644	51.8732	379.9327	714.6702	50.2212	331.2464	709.8216	63.6829	315.6532	1475.6223	-353.7347	407.1447	1563.7172	-432.2563	361.6268	1589.121	-440.3404	383.9249	1748.5135	-442.2242	394.2931	1821.6016	-425.0879	430.2691	1817.0023	-449.2692	397.9893	1896.2107	-433.3037	437.0933	1893.1425	-451.8393	373.5645	907.3153	-77.6764	186.2222	928.8765	-162.9878	375.6614	894.5469	-335.8247	187.7419	922.6039	-265.2595	292.5606	970.7488	-51.3066	290.9216	940.9548	-375.7059	139.1933	1289.855	-334.5373	167.357	1197.9584	-366.3447	197.5161	1351.1737	-443.7925
152	0.755	195.5725	1368.0928	-235.77	332.3278	1325.2216	-205.5406	178.4825	1318.5419	-78.6234	208.5543	1322.6445	-38.1352	229.1754	1358.8042	-56.7892	202.2207	1340.627	-359.5752	237.1736	1375.4857	-373.8367	225.1101	1396.6709	-326.9204	406.514	1135.0779	-198.6579	175.2681	1189.475	-239.3192	293.2994	1143.4373	-11.5941	233.4367	998.3188	-41.4153	244.8692	1010.1396	23.4837	303.361	857.7169	51.2926	355.5749	796.0294	34.9581	307.7473	787.42	51.8334	380.0295	714.8736	50.4359	331.2048	709.8373	63.6657	315.6895	1475.5743	-353.7214	407.1269	1563.6442	-432.2881	361.5534	1589.1041	-440.3677	383.9065	1748.5228	-442.2157	394.2573	1821.6228	-425.0964	430.2221	1817.0864	-449.2333	397.9537	1896.2085	-433.2798	437.0701	1893.1467	-451.8197	373.5651	907.2745	-77.6762	186.2369	928.8892	-162.9671	375.6569	894.5503	-335.83	187.7558	922.5881	-265.2548	292.5331	970.764	-51.3382	290.9058	940.946	-375.713	139.1834	1289.8784	-334.5393	167.3574	1197.97	-366.3677	197.5052	1351.1747	-443.8084
153	0.76	195.5666	1368.1029	-235.7715	332.3184	1325.2484	-205.5163	178.4541	1318.5621	-78.6371	208.5308	1322.6061	-38.1347	229.1868	1358.8252	-56.8126	202.207	1340.5963	-359.5877	237.1559	1375.483	-373.8628	225.0935	1396.6741	-326.9362	406.4658	1135.0612	-198.6578	175.249	1189.4686	-239.3013	293.2923	1143.4383	-11.6057	233.416	998.3283	-41.4088	244.8719	1010.1359	23.4845	303.3852	857.711	51.2647	355.5142	796.0982	35.0406	307.6015	787.5733	52.0092	379.8809	714.706	50.2393	331.1369	709.9	63.703	315.6387	1475.5829	-353.7389	407.084	1563.7102	-432.325	361.5146	1589.1139	-440.4099	383.8767	1748.5253	-442.2121	394.2409	1821.6179	-425.0863	430.2743	1816.9338	-449.288	397.9331	1896.1964	-433.2483	437.0459	1893.1265	-451.7867	373.5801	907.3403	-77.6503	186.234	928.8568	-162.9678	375.6671	894.566	-335.818	187.739	922.5718	-265.2462	292.5166	970.8178	-51.331	290.9087	940.9513	-375.7072	139.1646	1289.8585	-334.5403	167.3458	1197.9617	-366.3614	197.4781	1351.1622	-443.8029
154	0.765	195.5475	1368.0911	-235.7773	332.2828	1325.2589	-205.5394	178.4709	1318.5586	-78.65	208.5587	1322.6389	-38.1522	229.1935	1358.7053	-56.7338	202.1795	1340.5999	-359.5797	237.1293	1375.4841	-373.8544	225.0652	1396.6581	-326.9501	406.459	1135.1041	-198.6463	175.2649	1189.4718	-239.3136	293.2624	1143.4878	-11.5979	233.3977	998.3326	-41.4073	244.8764	1010.1239	23.4639	303.3567	857.7339	51.2816	355.4857	796.1107	34.9812	307.6957	787.47	51.8794	379.9133	714.6429	50.2203	331.0942	709.9498	63.6955	315.6333	1475.5919	-353.7753	407.0152	1563.7189	-432.3396	361.4984	1589.0883	-440.432	383.8504	1748.5159	-442.2126	394.2244	1821.5981	-425.0593	430.1684	1817.0135	-449.2569	397.8943	1896.1802	-433.2346	437.022	1893.119	-451.7889	373.595	907.3277	-77.6876	186.2372	928.8745	-162.9565	375.658	894.5325	-335.8204	187.7344	922.5991	-265.2462	292.5537	970.8257	-51.2865	290.919	940.9673	-375.7396	139.1407	1289.8356	-334.5446	167.3213	1197.9287	-366.3826	197.4604	1351.1688	-443.834
